# Exported from Wings 3D 0.99.02
mtllib tetrahedron.mtl
o tetrahedron1
#4 vertices, 4 faces
v 0.0000000e+0 1.08866211 0.0000000e+0
v 0.0000000e+0 -0.54433105 1.15470054
v -1.00000000 -0.54433105 -0.57735027
v 1.00000000 -0.54433105 -0.57735027
vt 0.0000000e+0 1.1102230e-16
vt 0.0000000e+0 0.64702107
vt 0.0000000e+0 0.71761685
vt 0.18677889 0.32351053
vt 0.18677889 0.32351053
vt 0.24455098 1.00000000
vt 0.36682647 0.64702107
vt 0.37355779 0.0000000e+0
vt 0.37355779 0.64702107
vt 0.37355779 0.0000000e+0
vt 0.49583328 0.35297893
vt 0.74038425 7.0595786e-2
vn 0.0000000e+0 1.00000000 -1.1102230e-16
vn 0.0000000e+0 -0.33333333 0.94280904
vn -0.81649658 -0.33333333 -0.47140452
vn 0.81649658 -0.33333333 -0.47140452
g tetrahedron1_tetrahedron1_auv
usemtl tetrahedron1_auv
f 1/11/1 3/8/3 2/12/2
f 1/5/1 4/1/4 3/10/3
f 2/3/2 4/7/4 1/6/1
f 3/9/3 4/2/4 2/4/2
