# Exported from Wings 3D 0.99.02
mtllib torus.mtl
o torus4
#128 vertices, 256 faces
v 1.66421356 0.0000000e+0 0.0000000e+0
v 1.53753285 0.0000000e+0 0.63686696
v 1.17677670 0.0000000e+0 1.17677670
v 0.63686696 0.0000000e+0 1.53753285
v 1.0190033e-16 0.0000000e+0 1.66421356
v -0.63686696 0.0000000e+0 1.53753285
v -1.17677670 0.0000000e+0 1.17677670
v -1.53753285 0.0000000e+0 0.63686696
v -1.66421356 0.0000000e+0 2.0380065e-16
v -1.53753285 0.0000000e+0 -0.63686696
v -1.17677670 0.0000000e+0 -1.17677670
v -0.63686696 0.0000000e+0 -1.53753285
v -3.0570098e-16 0.0000000e+0 -1.66421356
v 0.63686696 0.0000000e+0 -1.53753285
v 1.17677670 0.0000000e+0 -1.17677670
v 1.53753285 0.0000000e+0 -0.63686696
v 1.59099026 0.17677670 0.0000000e+0
v 1.46988334 0.17677670 0.60884561
v 1.12500000 0.17677670 1.12500000
v 0.60884561 0.17677670 1.46988334
v 9.7416839e-17 0.17677670 1.59099026
v -0.60884561 0.17677670 1.46988334
v -1.12500000 0.17677670 1.12500000
v -1.46988334 0.17677670 0.60884561
v -1.59099026 0.17677670 1.9483368e-16
v -1.46988334 0.17677670 -0.60884561
v -1.12500000 0.17677670 -1.12500000
v -0.60884561 0.17677670 -1.46988334
v -2.9225052e-16 0.17677670 -1.59099026
v 0.60884561 0.17677670 -1.46988334
v 1.12500000 0.17677670 -1.12500000
v 1.46988334 0.17677670 -0.60884561
v 1.41421356 0.25000000 0.0000000e+0
v 1.30656296 0.25000000 0.54119610
v 1.00000000 0.25000000 1.00000000
v 0.54119610 0.25000000 1.30656296
v 8.6592746e-17 0.25000000 1.41421356
v -0.54119610 0.25000000 1.30656296
v -1.00000000 0.25000000 1.00000000
v -1.30656296 0.25000000 0.54119610
v -1.41421356 0.25000000 1.7318549e-16
v -1.30656296 0.25000000 -0.54119610
v -1.00000000 0.25000000 -1.00000000
v -0.54119610 0.25000000 -1.30656296
v -2.5977824e-16 0.25000000 -1.41421356
v 0.54119610 0.25000000 -1.30656296
v 1.00000000 0.25000000 -1.00000000
v 1.30656296 0.25000000 -0.54119610
v 1.23743687 0.17677670 0.0000000e+0
v 1.14324259 0.17677670 0.47354659
v 0.87500000 0.17677670 0.87500000
v 0.47354659 0.17677670 1.14324259
v 7.5768652e-17 0.17677670 1.23743687
v -0.47354659 0.17677670 1.14324259
v -0.87500000 0.17677670 0.87500000
v -1.14324259 0.17677670 0.47354659
v -1.23743687 0.17677670 1.5153730e-16
v -1.14324259 0.17677670 -0.47354659
v -0.87500000 0.17677670 -0.87500000
v -0.47354659 0.17677670 -1.14324259
v -2.2730596e-16 0.17677670 -1.23743687
v 0.47354659 0.17677670 -1.14324259
v 0.87500000 0.17677670 -0.87500000
v 1.14324259 0.17677670 -0.47354659
v 1.16421356 3.0615159e-17 0.0000000e+0
v 1.07559308 3.0615159e-17 0.44552524
v 0.82322330 3.0615159e-17 0.82322330
v 0.44552524 3.0615159e-17 1.07559308
v 7.1285166e-17 3.0615159e-17 1.16421356
v -0.44552524 3.0615159e-17 1.07559308
v -0.82322330 3.0615159e-17 0.82322330
v -1.07559308 3.0615159e-17 0.44552524
v -1.16421356 3.0615159e-17 1.4257033e-16
v -1.07559308 3.0615159e-17 -0.44552524
v -0.82322330 3.0615159e-17 -0.82322330
v -0.44552524 3.0615159e-17 -1.07559308
v -2.1385550e-16 3.0615159e-17 -1.16421356
v 0.44552524 3.0615159e-17 -1.07559308
v 0.82322330 3.0615159e-17 -0.82322330
v 1.07559308 3.0615159e-17 -0.44552524
v 1.23743687 -0.17677670 0.0000000e+0
v 1.14324259 -0.17677670 0.47354659
v 0.87500000 -0.17677670 0.87500000
v 0.47354659 -0.17677670 1.14324259
v 7.5768652e-17 -0.17677670 1.23743687
v -0.47354659 -0.17677670 1.14324259
v -0.87500000 -0.17677670 0.87500000
v -1.14324259 -0.17677670 0.47354659
v -1.23743687 -0.17677670 1.5153730e-16
v -1.14324259 -0.17677670 -0.47354659
v -0.87500000 -0.17677670 -0.87500000
v -0.47354659 -0.17677670 -1.14324259
v -2.2730596e-16 -0.17677670 -1.23743687
v 0.47354659 -0.17677670 -1.14324259
v 0.87500000 -0.17677670 -0.87500000
v 1.14324259 -0.17677670 -0.47354659
v 1.41421356 -0.25000000 0.0000000e+0
v 1.30656296 -0.25000000 0.54119610
v 1.00000000 -0.25000000 1.00000000
v 0.54119610 -0.25000000 1.30656296
v 8.6592746e-17 -0.25000000 1.41421356
v -0.54119610 -0.25000000 1.30656296
v -1.00000000 -0.25000000 1.00000000
v -1.30656296 -0.25000000 0.54119610
v -1.41421356 -0.25000000 1.7318549e-16
v -1.30656296 -0.25000000 -0.54119610
v -1.00000000 -0.25000000 -1.00000000
v -0.54119610 -0.25000000 -1.30656296
v -2.5977824e-16 -0.25000000 -1.41421356
v 0.54119610 -0.25000000 -1.30656296
v 1.00000000 -0.25000000 -1.00000000
v 1.30656296 -0.25000000 -0.54119610
v 1.59099026 -0.17677670 0.0000000e+0
v 1.46988334 -0.17677670 0.60884561
v 1.12500000 -0.17677670 1.12500000
v 0.60884561 -0.17677670 1.46988334
v 9.7416839e-17 -0.17677670 1.59099026
v -0.60884561 -0.17677670 1.46988334
v -1.12500000 -0.17677670 1.12500000
v -1.46988334 -0.17677670 0.60884561
v -1.59099026 -0.17677670 1.9483368e-16
v -1.46988334 -0.17677670 -0.60884561
v -1.12500000 -0.17677670 -1.12500000
v -0.60884561 -0.17677670 -1.46988334
v -2.9225052e-16 -0.17677670 -1.59099026
v 0.60884561 -0.17677670 -1.46988334
v 1.12500000 -0.17677670 -1.12500000
v 1.46988334 -0.17677670 -0.60884561
vt 0.0000000e+0 0.25038921
vt 0.0000000e+0 0.74961079
vt 1.9044477e-2 0.65386774
vt 1.9044477e-2 0.34613226
vt 1.9106031e-2 0.15466454
vt 1.9106031e-2 0.84533546
vt 2.9935432e-2 0.74960129
vt 2.9935432e-2 0.25039871
vt 4.6695772e-2 0.33464456
vt 4.6695772e-2 0.66535544
vt 4.6763231e-2 0.16613881
vt 4.6763231e-2 0.83386119
vt 5.9554286e-2 0.74958873
vt 5.9554286e-2 0.25041127
vt 7.3381937e-2 7.3503154e-2
vt 7.3381937e-2 0.92649685
vt 7.3449561e-2 0.57281521
vt 7.3449561e-2 0.42718479
vt 7.4043830e-2 0.32328283
vt 7.4043830e-2 0.67671717
vt 7.4135712e-2 0.17750077
vt 7.4135712e-2 0.82249923
vt 9.4562396e-2 9.4682813e-2
vt 9.4562396e-2 0.90531719
vt 9.4565706e-2 0.59403404
vt 9.4565706e-2 0.40596596
vt 0.11545629 0.61503071
vt 0.11545629 0.38496929
vt 0.11552887 0.11565381
vt 0.11552887 0.88434619
vt 0.15455505 1.9206276e-2
vt 0.15455505 0.98079372
vt 0.15476117 0.51880896
vt 0.15476117 0.48119104
vt 0.16604846 4.6871316e-2
vt 0.16604846 0.95312868
vt 0.16614587 0.54650315
vt 0.16614587 0.45349685
vt 0.17740924 0.57391635
vt 0.17740924 0.42608365
vt 0.17742819 7.4262700e-2
vt 0.17742819 0.92573730
vt 0.25030651 0.0000000e+0
vt 0.25030651 1.00000000
vt 0.25036910 2.9953062e-2
vt 0.25036910 0.97004694
vt 0.25043482 5.9607259e-2
vt 0.25043482 0.94039274
vt 0.25044136 0.55960726
vt 0.25044136 0.44039274
vt 0.25050708 0.52995306
vt 0.25050708 0.47004694
vt 0.25056966 0.50000000
vt 0.25056966 0.50000000
vt 0.32344799 0.57426270
vt 0.32344799 0.42573730
vt 0.32346693 7.3916347e-2
vt 0.32346693 0.92608365
vt 0.33473031 4.6503150e-2
vt 0.33473031 0.95349685
vt 0.33482771 0.54687132
vt 0.33482771 0.45312868
vt 0.34611500 1.8808956e-2
vt 0.34611500 0.98119104
vt 0.34632113 0.51920628
vt 0.34632113 0.48079372
vt 0.38534731 0.61565381
vt 0.38534731 0.38434619
vt 0.38541988 0.11503071
vt 0.38541988 0.88496929
vt 0.40631047 9.4034040e-2
vt 0.40631047 0.90596596
vt 0.40631378 0.59468281
vt 0.40631378 0.40531719
vt 0.42674046 0.67750077
vt 0.42674046 0.32249923
vt 0.42683234 0.82328283
vt 0.42683234 0.17671717
vt 0.42742661 7.2815214e-2
vt 0.42742661 0.92718479
vt 0.42749424 0.57350315
vt 0.42749424 0.42649685
vt 0.44132189 0.75041127
vt 0.44132189 0.24958873
vt 0.45411294 0.66613881
vt 0.45411294 0.33386119
vt 0.45418040 0.16535544
vt 0.45418040 0.83464456
vt 0.47094074 0.75039871
vt 0.47094074 0.24960129
vt 0.48177014 0.65466454
vt 0.48177014 0.34533546
vt 0.48183170 0.84613226
vt 0.48183170 0.15386774
vt 0.50087618 0.75038921
vt 0.50087618 0.21160931
vt 0.50087618 0.24961079
vt 0.50087618 3.0229902e-2
vt 0.50087618 9.0689706e-2
vt 0.50087618 0.15114951
vt 0.50087618 0.24236640
vt 0.50087618 0.30055696
vt 0.50087618 0.30470563
vt 0.50087618 0.36289620
vt 0.50087618 0.36549772
vt 0.50087618 0.42628980
vt 0.50087618 0.42368828
vt 0.50087618 0.48448036
vt 0.50335628 6.0459804e-2
vt 0.50335628 0.18137941
vt 0.50335628 0.24183922
vt 0.50335628 1.7347235e-17
vt 0.50335628 6.0459804e-2
vt 0.50335628 0.12091961
vt 0.50335628 0.12091961
vt 0.50335628 0.18137941
vt 0.50347008 0.27151030
vt 0.50347008 0.33375230
vt 0.50347008 0.39454438
vt 0.50347008 0.45533646
vt 0.57445545 0.30161200
vt 0.57445545 0.30365059
vt 0.57445545 0.36444268
vt 0.57445545 0.42523476
vt 0.57475724 0.36342338
vt 0.57475724 0.24183922
vt 0.57475724 0.42421546
vt 0.57475724 0.48500755
vt 0.57478933 0.27175039
vt 0.57478933 0.33351220
vt 0.57478933 0.39430429
vt 0.57478933 0.45509637
vt 0.60166666 0.21160931
vt 0.60166666 3.0229902e-2
vt 0.60166666 9.0689706e-2
vt 0.60166666 0.15114951
vt 0.60175873 0.12162129
vt 0.60175873 0.18208110
vt 0.60175873 6.1161491e-2
vt 0.60175873 0.18067773
vt 0.60175873 0.24113753
vt 0.60175873 7.0168671e-4
vt 0.60175873 5.9758117e-2
vt 0.60175873 0.12021792
vt 0.64771478 0.30209348
vt 0.64771478 0.30316911
vt 0.64771478 0.36396120
vt 0.64771478 0.42475328
vt 0.64791575 0.27223526
vt 0.64791575 0.33302734
vt 0.64791575 0.39381942
vt 0.64791575 0.45461150
vt 0.64811673 0.24237703
vt 0.64811673 0.36288556
vt 0.64811673 0.42367765
vt 0.64811673 0.48446973
vt 0.69967928 0.18217732
vt 0.69967928 0.21160931
vt 0.69967928 0.24104131
vt 0.69967928 7.9790711e-4
vt 0.69967928 3.0229902e-2
vt 0.69967928 5.9661897e-2
vt 0.69967928 6.1257711e-2
vt 0.69967928 9.0689706e-2
vt 0.69967928 0.12012170
vt 0.69967928 0.12171752
vt 0.69967928 0.15114951
vt 0.69967928 0.18058150
vt 0.72104218 0.27272012
vt 0.72104218 0.45412664
vt 0.72104218 0.33254248
vt 0.72104218 0.39333456
vt 0.72107427 0.30263130
vt 0.72107427 0.36342338
vt 0.72107427 0.42421546
vt 0.72107427 0.30263130
vt 0.72137606 0.48398825
vt 0.72137606 0.24285851
vt 0.72137606 0.36240408
vt 0.72137606 0.42319617
vt 0.79236142 0.27296021
vt 0.79236142 0.33230238
vt 0.79236142 0.39309447
vt 0.79236142 0.45388655
vt 0.79495533 0.30210412
vt 0.79495533 0.36134904
vt 0.79495533 0.42474265
vt 0.79495533 0.24391355
vt 0.79495533 0.30315848
vt 0.79495533 0.36395056
vt 0.79495533 0.42214113
vt 0.79495533 0.48293321
vt 0.79759983 7.0168671e-4
vt 0.79759983 0.24113753
vt 0.79759983 5.9758117e-2
vt 0.79759983 0.12021792
vt 0.79759983 0.18208110
vt 0.79759983 6.1161491e-2
vt 0.79759983 0.12162129
vt 0.79759983 0.18067773
vt 0.79769190 3.0229902e-2
vt 0.79769190 0.21160931
vt 0.79769190 9.0689706e-2
vt 0.79769190 0.15114951
vt 0.89600228 0.0000000e+0
vt 0.89600228 6.0459804e-2
vt 0.89600228 0.18137941
vt 0.89600228 0.24183922
vt 0.89600228 6.0459804e-2
vt 0.89600228 0.12091961
vt 0.89600228 0.12091961
vt 0.89848238 0.21160931
vt 0.89848238 3.0229902e-2
vt 0.89848238 9.0689706e-2
vt 0.89848238 0.15114951
vn 1.00000000 0.0000000e+0 0.0000000e+0
vn 0.92387953 7.6363749e-18 0.38268343
vn 0.70710678 0.0000000e+0 0.70710678
vn 0.38268343 -7.6363749e-18 0.92387953
vn 3.0545499e-17 0.0000000e+0 1.00000000
vn -0.38268343 -1.5272750e-17 0.92387953
vn -0.70710678 0.0000000e+0 0.70710678
vn -0.92387953 -2.2909125e-17 0.38268343
vn -1.00000000 -1.5272750e-17 4.5818249e-17
vn -0.92387953 0.0000000e+0 -0.38268343
vn -0.70710678 0.0000000e+0 -0.70710678
vn -0.38268343 1.5272750e-17 -0.92387953
vn -9.1636498e-17 -1.5272750e-17 -1.00000000
vn 0.38268343 -1.5272750e-17 -0.92387953
vn 0.70710678 0.0000000e+0 -0.70710678
vn 0.92387953 0.0000000e+0 -0.38268343
vn 0.70509497 0.70911288 3.7919832e-18
vn 0.65142281 0.70911289 0.26982816
vn 0.49857743 0.70911289 0.49857743
vn 0.26982816 0.70911289 0.65142281
vn 2.0855908e-17 0.70911288 0.70509497
vn -0.26982816 0.70911289 0.65142281
vn -0.49857743 0.70911289 0.49857743
vn -0.65142281 0.70911289 0.26982816
vn -0.70509497 0.70911288 1.8959916e-17
vn -0.65142281 0.70911289 -0.26982816
vn -0.49857743 0.70911289 -0.49857743
vn -0.26982816 0.70911289 -0.65142281
vn -6.0671732e-17 0.70911288 -0.70509497
vn 0.26982816 0.70911289 -0.65142281
vn 0.49857743 0.70911289 -0.49857743
vn 0.65142281 0.70911289 -0.26982816
vn -9.9423895e-9 1.00000000 0.0000000e+0
vn -6.6294884e-9 1.00000000 -2.5916733e-9
vn 3.0129330e-17 1.00000000 4.5193996e-17
vn -2.5916733e-9 1.00000000 -6.6294885e-9
vn -3.7661663e-18 1.00000000 -9.9423900e-9
vn 2.5916734e-9 1.00000000 -6.6294886e-9
vn -3.0129330e-17 1.00000000 4.5193996e-17
vn 6.6294883e-9 1.00000000 -2.5916733e-9
vn 9.9423890e-9 1.00000000 -1.3558199e-16
vn 6.6294882e-9 1.00000000 2.5916733e-9
vn -3.0129330e-17 1.00000000 -4.5193996e-17
vn 2.5916733e-9 1.00000000 6.6294885e-9
vn 1.5064665e-17 1.00000000 9.9423900e-9
vn -2.5916733e-9 1.00000000 6.6294886e-9
vn 3.0129330e-17 1.00000000 -4.5193996e-17
vn -6.6294884e-9 1.00000000 2.5916733e-9
vn -0.70509497 0.70911288 0.0000000e+0
vn -0.65142282 0.70911288 -0.26982817
vn -0.49857743 0.70911289 -0.49857743
vn -0.26982817 0.70911288 -0.65142282
vn -2.2751899e-17 0.70911288 -0.70509497
vn 0.26982817 0.70911288 -0.65142282
vn 0.49857743 0.70911289 -0.49857743
vn 0.65142282 0.70911288 -0.26982817
vn 0.70509497 0.70911288 -7.2047681e-17
vn 0.65142282 0.70911288 0.26982817
vn 0.49857743 0.70911289 0.49857743
vn 0.26982817 0.70911288 0.65142282
vn 6.0671731e-17 0.70911288 0.70509497
vn -0.26982817 0.70911288 0.65142282
vn -0.49857743 0.70911289 0.49857743
vn -0.65142282 0.70911288 0.26982817
vn -1.00000000 9.1636500e-17 0.0000000e+0
vn -0.92387953 1.0690925e-16 -0.38268344
vn -0.70710678 0.0000000e+0 -0.70710678
vn -0.38268344 3.0545500e-17 -0.92387953
vn -3.0545500e-17 9.1636500e-17 -1.00000000
vn 0.38268344 1.1454562e-16 -0.92387953
vn 0.70710678 -7.6363750e-17 -0.70710678
vn 0.92387953 -3.0545500e-17 -0.38268344
vn 1.00000000 1.5272750e-17 -2.2909125e-17
vn 0.92387953 1.0690925e-16 0.38268344
vn 0.70710678 0.0000000e+0 0.70710678
vn 0.38268344 2.2909125e-17 0.92387953
vn 9.1636500e-17 1.0690925e-16 1.00000000
vn -0.38268344 1.1454562e-16 0.92387953
vn -0.70710678 -7.6363750e-17 0.70710678
vn -0.92387953 0.0000000e+0 0.38268344
vn -0.70509497 -0.70911288 -7.5839664e-18
vn -0.65142282 -0.70911288 -0.26982817
vn -0.49857743 -0.70911289 -0.49857743
vn -0.26982817 -0.70911288 -0.65142282
vn -2.0855908e-17 -0.70911288 -0.70509497
vn 0.26982817 -0.70911288 -0.65142282
vn 0.49857743 -0.70911289 -0.49857743
vn 0.65142282 -0.70911288 -0.26982817
vn 0.70509497 -0.70911288 -3.9815824e-17
vn 0.65142282 -0.70911288 0.26982817
vn 0.49857743 -0.70911289 0.49857743
vn 0.26982817 -0.70911288 0.65142282
vn 6.4463714e-17 -0.70911288 0.70509497
vn -0.26982817 -0.70911288 0.65142282
vn -0.49857743 -0.70911289 0.49857743
vn -0.65142282 -0.70911288 0.26982817
vn -9.9423895e-9 -1.00000000 0.0000000e+0
vn -6.6294884e-9 -1.00000000 -2.5916733e-9
vn 6.0258661e-17 -1.00000000 9.0387991e-17
vn -2.5916733e-9 -1.00000000 -6.6294885e-9
vn -7.5323326e-18 -1.00000000 -9.9423901e-9
vn 2.5916733e-9 -1.00000000 -6.6294885e-9
vn -6.0258661e-17 -1.00000000 9.0387991e-17
vn 6.6294882e-9 -1.00000000 -2.5916733e-9
vn 9.9423892e-9 -1.00000000 -6.4024827e-17
vn 6.6294883e-9 -1.00000000 2.5916733e-9
vn -6.0258661e-17 -1.00000000 -9.0387991e-17
vn 2.5916733e-9 -1.00000000 6.6294884e-9
vn 1.1298499e-17 -1.00000000 9.9423900e-9
vn -2.5916733e-9 -1.00000000 6.6294885e-9
vn 6.0258661e-17 -1.00000000 -9.0387991e-17
vn -6.6294884e-9 -1.00000000 2.5916733e-9
vn 0.70509497 -0.70911288 0.0000000e+0
vn 0.65142281 -0.70911289 0.26982816
vn 0.49857743 -0.70911289 0.49857743
vn 0.26982816 -0.70911289 0.65142281
vn 1.8959916e-17 -0.70911288 0.70509497
vn -0.26982816 -0.70911289 0.65142281
vn -0.49857743 -0.70911289 0.49857743
vn -0.65142281 -0.70911289 0.26982816
vn -0.70509497 -0.70911288 3.0335866e-17
vn -0.65142281 -0.70911289 -0.26982816
vn -0.49857743 -0.70911289 -0.49857743
vn -0.26982816 -0.70911289 -0.65142281
vn -6.0671732e-17 -0.70911288 -0.70509497
vn 0.26982816 -0.70911289 -0.65142281
vn 0.49857743 -0.70911289 -0.49857743
vn 0.65142281 -0.70911289 -0.26982816
g torus4_torus4_auv
usemtl torus4_auv
f 1/161/1 17/162/17 2/134/2
f 1/161/1 113/160/113 16/201/16
f 2/134/2 19/109/19 3/98/3
f 2/134/2 113/160/113 1/161/1
f 2/134/2 114/142/114 113/160/113
f 2/134/2 115/112/115 114/142/114
f 3/212/3 19/208/19 4/202/4
f 3/98/3 115/112/115 2/134/2
f 4/202/4 21/159/21 5/158/5
f 4/202/4 115/207/115 3/212/3
f 4/202/4 116/197/116 115/207/115
f 4/202/4 117/157/117 116/197/116
f 5/158/5 21/159/21 6/133/6
f 5/158/5 117/157/117 4/202/4
f 6/133/6 23/111/23 7/96/7
f 6/133/6 117/157/117 5/158/5
f 6/133/6 118/138/118 117/157/117
f 6/133/6 119/110/119 118/138/118
f 7/215/7 23/207/23 8/204/8
f 7/96/7 119/110/119 6/133/6
f 8/204/8 25/168/25 9/167/9
f 8/204/8 119/211/119 7/215/7
f 8/204/8 120/199/120 119/211/119
f 8/204/8 121/166/121 120/199/120
f 9/167/9 25/168/25 10/136/10
f 9/167/9 121/166/121 8/204/8
f 10/136/10 27/116/27 11/100/11
f 10/136/10 121/166/121 9/167/9
f 10/136/10 122/137/122 121/166/121
f 10/136/10 123/115/123 122/137/122
f 11/214/11 27/210/27 12/203/12
f 11/100/11 123/115/123 10/136/10
f 12/203/12 29/165/29 13/164/13
f 12/203/12 123/209/123 11/214/11
f 12/203/12 124/198/124 123/209/123
f 12/203/12 125/163/125 124/198/124
f 13/164/13 29/165/29 14/135/14
f 13/164/13 125/163/125 12/203/12
f 14/135/14 31/114/31 15/99/15
f 14/135/14 125/163/125 13/164/13
f 14/135/14 126/139/126 125/163/125
f 14/135/14 127/113/127 126/139/126
f 15/213/15 31/206/31 16/201/16
f 15/99/15 127/113/127 14/135/14
f 16/201/16 17/162/17 1/161/1
f 16/201/16 32/195/32 17/162/17
f 16/201/16 127/205/127 15/213/15
f 16/201/16 128/193/128 127/205/127
f 17/162/17 18/143/18 2/134/2
f 17/95/17 34/85/34 18/91/18
f 17/95/17 48/88/48 33/89/33
f 18/143/18 19/109/19 2/134/2
f 18/91/18 34/85/34 19/81/19
f 19/208/19 20/194/20 4/202/4
f 19/81/19 36/61/36 20/65/20
f 20/194/20 21/159/21 4/202/4
f 20/65/20 36/61/36 21/53/21
f 21/159/21 22/141/22 6/133/6
f 21/53/21 38/37/38 22/33/22
f 22/141/22 23/111/23 6/133/6
f 22/33/22 38/37/38 23/17/23
f 23/207/23 24/200/24 8/204/8
f 23/17/23 40/10/40 24/3/24
f 24/200/24 25/168/25 8/204/8
f 24/3/24 40/10/40 25/2/25
f 25/168/25 26/140/26 10/136/10
f 25/2/25 42/12/42 26/6/26
f 26/140/26 27/116/27 10/136/10
f 26/6/26 42/12/42 27/16/27
f 27/210/27 28/196/28 12/203/12
f 27/16/27 44/36/44 28/32/28
f 28/196/28 29/165/29 12/203/12
f 28/32/28 44/36/44 29/44/29
f 29/165/29 30/144/30 14/135/14
f 29/44/29 46/60/46 30/64/30
f 30/144/30 31/114/31 14/135/14
f 30/64/30 46/60/46 31/80/31
f 31/206/31 32/195/32 16/201/16
f 31/80/31 48/88/48 32/93/32
f 32/93/32 48/88/48 17/95/17
f 33/89/33 34/85/34 17/95/17
f 33/89/33 49/83/49 34/85/34
f 34/85/34 35/73/35 19/81/19
f 34/85/34 51/67/51 35/73/35
f 35/73/35 36/61/36 19/81/19
f 35/73/35 51/67/51 36/61/36
f 36/61/36 37/51/37 21/53/21
f 36/61/36 53/49/53 37/51/37
f 37/51/37 38/37/38 21/53/21
f 37/51/37 53/49/53 38/37/38
f 38/37/38 39/25/39 23/17/23
f 38/37/38 55/27/55 39/25/39
f 39/25/39 40/10/40 23/17/23
f 39/25/39 55/27/55 40/10/40
f 40/10/40 41/7/41 25/2/25
f 40/10/40 57/13/57 41/7/41
f 41/7/41 42/12/42 25/2/25
f 41/7/41 57/13/57 42/12/42
f 42/12/42 43/24/43 27/16/27
f 42/12/42 59/30/59 43/24/43
f 43/24/43 44/36/44 27/16/27
f 43/24/43 59/30/59 44/36/44
f 44/36/44 45/46/45 29/44/29
f 44/36/44 61/48/61 45/46/45
f 45/46/45 46/60/46 29/44/29
f 45/46/45 61/48/61 46/60/46
f 46/60/46 47/72/47 31/80/31
f 46/60/46 63/70/63 47/72/47
f 47/72/47 48/88/48 31/80/31
f 47/72/47 63/70/63 48/88/48
f 48/88/48 49/83/49 33/89/33
f 48/88/48 64/77/64 49/83/49
f 49/83/49 50/75/50 34/85/34
f 49/145/49 66/169/66 50/173/50
f 49/145/49 80/129/80 65/149/65
f 50/75/50 51/67/51 34/85/34
f 50/173/50 66/169/66 51/185/51
f 51/67/51 52/55/52 36/61/36
f 51/107/51 68/131/68 52/127/52
f 52/55/52 53/49/53 36/61/36
f 52/127/52 68/131/68 53/155/53
f 53/49/53 54/39/54 38/37/38
f 53/155/53 70/172/70 54/180/54
f 54/39/54 55/27/55 38/37/38
f 54/180/54 70/172/70 55/191/55
f 55/27/55 56/20/56 40/10/40
f 55/108/55 72/132/72 56/128/56
f 56/20/56 57/13/57 40/10/40
f 56/128/56 72/132/72 57/156/57
f 57/13/57 58/22/58 42/12/42
f 57/156/57 74/170/74 58/177/58
f 58/22/58 59/30/59 42/12/42
f 58/177/58 74/170/74 59/192/59
f 59/30/59 60/42/60 44/36/44
f 59/104/59 76/130/76 60/125/60
f 60/42/60 61/48/61 44/36/44
f 60/125/60 76/130/76 61/154/61
f 61/48/61 62/58/62 46/60/46
f 61/154/61 78/171/78 62/179/62
f 62/58/62 63/70/63 46/60/46
f 62/179/62 78/171/78 63/186/63
f 63/70/63 64/77/64 48/88/48
f 63/102/63 80/129/80 64/121/64
f 64/121/64 80/129/80 49/145/49
f 65/149/65 66/169/66 49/145/49
f 65/149/65 81/153/81 66/169/66
f 66/169/66 67/181/67 51/185/51
f 66/169/66 83/188/83 67/181/67
f 67/119/67 68/131/68 51/107/51
f 67/119/67 83/105/83 68/131/68
f 68/131/68 69/151/69 53/155/53
f 68/131/68 85/147/85 69/151/69
f 69/151/69 70/172/70 53/155/53
f 69/151/69 85/147/85 70/172/70
f 70/172/70 71/183/71 55/191/55
f 70/172/70 87/190/87 71/183/71
f 71/120/71 72/132/72 55/108/55
f 71/120/71 87/106/87 72/132/72
f 72/132/72 73/152/73 57/156/57
f 72/132/72 89/148/89 73/152/73
f 73/152/73 74/170/74 57/156/57
f 73/152/73 89/148/89 74/170/74
f 74/170/74 75/184/75 59/192/59
f 74/170/74 91/187/91 75/184/75
f 75/118/75 76/130/76 59/104/59
f 75/118/75 91/103/91 76/130/76
f 76/130/76 77/150/77 61/154/61
f 76/130/76 93/146/93 77/150/77
f 77/150/77 78/171/78 61/154/61
f 77/150/77 93/146/93 78/171/78
f 78/171/78 79/182/79 63/186/63
f 78/171/78 95/189/95 79/182/79
f 79/117/79 80/129/80 63/102/63
f 79/117/79 95/101/95 80/129/80
f 80/129/80 81/153/81 65/149/65
f 80/129/80 96/126/96 81/153/81
f 81/153/81 82/178/82 66/169/66
f 81/14/81 98/11/98 82/21/82
f 81/14/81 112/9/112 97/8/97
f 82/178/82 83/188/83 66/169/66
f 82/21/82 98/11/98 83/29/83
f 83/105/83 84/123/84 68/131/68
f 83/29/83 100/35/100 84/41/84
f 84/123/84 85/147/85 68/131/68
f 84/41/84 100/35/100 85/47/85
f 85/147/85 86/174/86 70/172/70
f 85/47/85 102/59/102 86/57/86
f 86/174/86 87/190/87 70/172/70
f 86/57/86 102/59/102 87/69/87
f 87/106/87 88/124/88 72/132/72
f 87/69/87 104/87/104 88/78/88
f 88/124/88 89/148/89 72/132/72
f 88/78/88 104/87/104 89/84/89
f 89/148/89 90/175/90 74/170/74
f 89/84/89 106/86/106 90/76/90
f 90/175/90 91/187/91 74/170/74
f 90/76/90 106/86/106 91/68/91
f 91/103/91 92/122/92 76/130/76
f 91/68/91 108/62/108 92/56/92
f 92/122/92 93/146/93 76/130/76
f 92/56/92 108/62/108 93/50/93
f 93/146/93 94/176/94 78/171/78
f 93/50/93 110/38/110 94/40/94
f 94/176/94 95/189/95 78/171/78
f 94/40/94 110/38/110 95/28/95
f 95/101/95 96/126/96 80/129/80
f 95/28/95 112/9/112 96/19/96
f 96/19/96 112/9/112 81/14/81
f 97/8/97 98/11/98 81/14/81
f 97/8/97 113/1/113 98/11/98
f 98/11/98 99/23/99 83/29/83
f 98/11/98 115/15/115 99/23/99
f 99/23/99 100/35/100 83/29/83
f 99/23/99 115/15/115 100/35/100
f 100/35/100 101/45/101 85/47/85
f 100/35/100 117/43/117 101/45/101
f 101/45/101 102/59/102 85/47/85
f 101/45/101 117/43/117 102/59/102
f 102/59/102 103/71/103 87/69/87
f 102/59/102 119/79/119 103/71/103
f 103/71/103 104/87/104 87/69/87
f 103/71/103 119/79/119 104/87/104
f 104/87/104 105/90/105 89/84/89
f 104/87/104 121/97/121 105/90/105
f 105/90/105 106/86/106 89/84/89
f 105/90/105 121/97/121 106/86/106
f 106/86/106 107/74/107 91/68/91
f 106/86/106 123/82/123 107/74/107
f 107/74/107 108/62/108 91/68/91
f 107/74/107 123/82/123 108/62/108
f 108/62/108 109/52/109 93/50/93
f 108/62/108 125/54/125 109/52/109
f 109/52/109 110/38/110 93/50/93
f 109/52/109 125/54/125 110/38/110
f 110/38/110 111/26/111 95/28/95
f 110/38/110 127/18/127 111/26/111
f 111/26/111 112/9/112 95/28/95
f 111/26/111 127/18/127 112/9/112
f 112/9/112 113/1/113 97/8/97
f 112/9/112 128/4/128 113/1/113
f 113/1/113 114/5/114 98/11/98
f 113/160/113 128/193/128 16/201/16
f 114/5/114 115/15/115 98/11/98
f 115/15/115 116/31/116 100/35/100
f 116/31/116 117/43/117 100/35/100
f 117/43/117 118/63/118 102/59/102
f 118/63/118 119/79/119 102/59/102
f 119/79/119 120/94/120 104/87/104
f 120/94/120 121/97/121 104/87/104
f 121/97/121 122/92/122 106/86/106
f 122/92/122 123/82/123 106/86/106
f 123/82/123 124/66/124 108/62/108
f 124/66/124 125/54/125 108/62/108
f 125/54/125 126/34/126 110/38/110
f 126/34/126 127/18/127 110/38/110
f 127/18/127 128/4/128 112/9/112
